<svg xmlns="http://www.w3.org/2000/svg" viewBox="0 0 500 500"><g id="freepik--background-simple--inject-13"><path d="M287.86,111.62V90c-16.57,4.12-31.78,11.38-46.7,21.6Z" style="fill:#92E3A9"></path><rect x="294.37" y="119.41" width="114.36" height="141.94" style="fill:#92E3A9"></rect><path d="M287.86,119.41H230.45c-12.83,9.6-26,19.32-41.37,24.86-5.14,1.86-10.34,3.49-15.58,5V261.35H287.86Z" style="fill:#92E3A9"></path><path d="M431.35,142.12A92.74,92.74,0,0,0,415.24,121V261.35H427C445.08,225.18,451,177.77,431.35,142.12Z" style="fill:#92E3A9"></path><path d="M167,151.1c-6.23,1.71-12.51,3.32-18.79,5C99,169.25,68.49,213.47,74.14,261.35H167Z" style="fill:#92E3A9"></path><path d="M415.24,269.14v11.69q2.17-2.9,4.15-6c1.18-1.85,2.32-3.76,3.44-5.7Z" style="fill:#92E3A9"></path><path d="M408.73,269.14H294.37V329c9.51.12,18.94.88,28.56-.17,31.58-3.44,63.94-16.36,85.8-40.18Z" style="fill:#92E3A9"></path><path d="M294.37,111.62H404.31C382,95,353.07,86.74,325.69,86.08a144.62,144.62,0,0,0-31.32,2.49Z" style="fill:#92E3A9"></path><path d="M287.86,269.14H173.5v85.2c19.83.34,39.75-5.36,58.55-11.74,14.94-5.06,30-10.3,45.78-12.66a85.38,85.38,0,0,1,10-.86Z" style="fill:#92E3A9"></path><path d="M167,269.14H75.38c7.22,35,35.08,66.91,70.12,80.05A80.43,80.43,0,0,0,167,354Z" style="fill:#92E3A9"></path><g style="opacity:0.7000000000000001"><path d="M287.86,111.62V90c-16.57,4.12-31.78,11.38-46.7,21.6Z" style="fill:#fff"></path><rect x="294.37" y="119.41" width="114.36" height="141.94" style="fill:#fff"></rect><path d="M287.86,119.41H230.45c-12.83,9.6-26,19.32-41.37,24.86-5.14,1.86-10.34,3.49-15.58,5V261.35H287.86Z" style="fill:#fff"></path><path d="M431.35,142.12A92.74,92.74,0,0,0,415.24,121V261.35H427C445.08,225.18,451,177.77,431.35,142.12Z" style="fill:#fff"></path><path d="M167,151.1c-6.23,1.71-12.51,3.32-18.79,5C99,169.25,68.49,213.47,74.14,261.35H167Z" style="fill:#fff"></path><path d="M415.24,269.14v11.69q2.17-2.9,4.15-6c1.18-1.85,2.32-3.76,3.44-5.7Z" style="fill:#fff"></path><path d="M408.73,269.14H294.37V329c9.51.12,18.94.88,28.56-.17,31.58-3.44,63.94-16.36,85.8-40.18Z" style="fill:#fff"></path><path d="M294.37,111.62H404.31C382,95,353.07,86.74,325.69,86.08a144.62,144.62,0,0,0-31.32,2.49Z" style="fill:#fff"></path><path d="M287.86,269.14H173.5v85.2c19.83.34,39.75-5.36,58.55-11.74,14.94-5.06,30-10.3,45.78-12.66a85.38,85.38,0,0,1,10-.86Z" style="fill:#fff"></path><path d="M167,269.14H75.38c7.22,35,35.08,66.91,70.12,80.05A80.43,80.43,0,0,0,167,354Z" style="fill:#fff"></path></g></g><g id="freepik--Desk--inject-13"><polygon points="431.17 293.02 426.93 293.02 235.46 293.02 231.22 293.02 231.22 301.5 235.46 301.5 235.46 387.7 426.93 387.7 426.93 301.5 431.17 301.5 431.17 293.02" style="fill:#92E3A9"></polygon><polygon points="431.17 293.02 426.93 293.02 235.46 293.02 231.22 293.02 231.22 301.5 235.46 301.5 235.46 387.7 426.93 387.7 426.93 301.5 431.17 301.5 431.17 293.02" style="fill:#fff;opacity:0.5"></polygon><path d="M240.58,338.06h52.23v-27.9H240.58Zm1.06-26.84h50.11V337H241.64Z" style="fill:#fff"></path><path d="M305.44,338.06h52.22v-27.9H305.44Zm1.06-26.84h50.1V337H306.5Z" style="fill:#fff"></path><path d="M370.29,310.16v27.9h52.22v-27.9ZM421.45,337h-50.1V311.22h50.1Z" style="fill:#fff"></path><path d="M240.58,375.51h52.23V347.6H240.58Zm1.06-26.85h50.11v25.79H241.64Z" style="fill:#fff"></path><path d="M305.44,375.51h52.22V347.6H305.44Zm1.06-26.85h50.1v25.79H306.5Z" style="fill:#fff"></path><path d="M370.29,375.51h52.22V347.6H370.29Zm1.06-26.85h50.1v25.79h-50.1Z" style="fill:#fff"></path><ellipse cx="267.25" cy="324.46" rx="8.48" ry="3.18" style="fill:#fff"></ellipse><ellipse cx="331.79" cy="324.46" rx="8.48" ry="3.18" style="fill:#fff"></ellipse><ellipse cx="398.21" cy="324.46" rx="8.48" ry="3.18" style="fill:#fff"></ellipse><path d="M267.25,358.73c-4.68,0-8.47,1.42-8.47,3.18s3.79,3.18,8.47,3.18,8.48-1.42,8.48-3.18S271.94,358.73,267.25,358.73Z" style="fill:#fff"></path><path d="M331.79,358.73c-4.68,0-8.47,1.42-8.47,3.18s3.79,3.18,8.47,3.18,8.48-1.42,8.48-3.18S336.48,358.73,331.79,358.73Z" style="fill:#fff"></path><path d="M398.21,358.73c-4.68,0-8.48,1.42-8.48,3.18s3.8,3.18,8.48,3.18,8.48-1.42,8.48-3.18S402.89,358.73,398.21,358.73Z" style="fill:#fff"></path></g><g id="freepik--Plants--inject-13"><path d="M158.36,285.62c-3.86,5.72-9.24,13.17-12.11,19.15,1.09-3.94,2.16-7.66,3.13-11,1.47-2.88,5.41-10.18,10-15,5.77-6.18,8.24-10.14,5.13-10.49-2.15-.24-8.45,8.15-12.4,16.49.86-2.85,1.54-5,1.95-6.3.19-.57.37-1.21.55-1.88a165.38,165.38,0,0,0,11.14-17.86c5.83-10.9,7.71-21.18,3.82-16.75-3.58,4.07-9.81,24.3-14.75,33.83.41-1.64.81-3.46,1.16-5.25.7-1.73,1.62-3.49,2.14-5.09.81-2.45,1.52-4.94,2.09-7.46a51.86,51.86,0,0,0,1.42-12,24.31,24.31,0,0,0-3.72-13.44c-.67-1-4.76-7.12-6-4a3.37,3.37,0,0,0-.09,1.61c.6,5.21,2.49,10,3.66,15.07,1.75,7.59.59,20.34,0,25.76-.22.85-.5,1.92-.83,3.15.81-9.45-3.28-20.64-7.07-22.59-4.69-2.42-.09,7.08,3.53,15.37a24.69,24.69,0,0,1,2.35,11.64c-.74,2.73-1.59,5.79-2.47,8.89-.17.43-.34.85-.5,1.27a26.55,26.55,0,0,0,.5-6.15c-.35-5.42-6.49-16.27-10.57-14.74s2.83,7.26,6.52,13.92A20.07,20.07,0,0,1,149,293.64c0,.24-.08.48-.11.72-.42,1.41-.84,2.78-1.25,4.07-1,3-1.85,5.88-2.7,8.66a43.32,43.32,0,0,0,1.36-12.35c-.51-7.95-5.16-15.45-9-16.47s3.49,11.93,5.95,19.21a26.12,26.12,0,0,1,.66,13.14c-1.19,3.94-2.31,7.82-3.46,11.94a99.4,99.4,0,0,0-.34-16.15c-.75-8.84-6-14.49-9.63-14.26s.16,5.25,5.38,16a35.93,35.93,0,0,1,3.56,18.18c-.47,1.74-1,3.52-1.44,5.38-.56,2.12-1,4.42-1.39,6.78-.53-2.1-1.31-5.18-2.22-8.58a76.25,76.25,0,0,1-2.3-11.48c-.49-4.51-1.68-10.13-6.1-12.48a2.49,2.49,0,0,0-3.7,1,4.91,4.91,0,0,0-.27,3.06,33.73,33.73,0,0,0,3,8.82,10.18,10.18,0,0,0-1.15,5.41c0,.71.06,1.41.11,2.1-.39-.71-.76-1.37-1.11-2a12.93,12.93,0,0,0-2.32-2.86,37.11,37.11,0,0,0,.34-5c0-2.2-2.57-7.78-4.89-3.64-.92,1.65-.75,4.91-.84,7.07-.63.59-.82,1.81-.29,3.74a48.17,48.17,0,0,0,.78,15l-.79-1.4a109.83,109.83,0,0,1-2-17.54C112.46,310,114,302,111.36,299s-4.13,7.55-3,19a48,48,0,0,0,4.14,15.17c-2.6-4.67-5.17-9.43-7.6-14-1-2.46-3.48-9.08-2.87-15.8.77-8.48,1.33-15.41-1.89-20.18s-3.89-1.68-2.31,8.26c1.08,6.83,2.23,15.95,4.22,22.28-1.89-3.63-3.66-7.08-5.24-10.21-.9-3.11-3-11.13-3-17.78,0-8.45-.91-13-3.41-11.17-1.74,1.3-.62,11.73,2.18,20.51-1.31-2.67-2.3-4.72-2.87-5.93-.26-.55-.55-1.13-.88-1.75a165.34,165.34,0,0,0-4-20.65c-3.17-12-8.81-20.74-8.64-14.86.16,5.42,9.42,24.46,12.31,34.8-.82-1.48-1.77-3.08-2.73-4.63-.67-1.74-1.2-3.65-1.91-5.18-1.09-2.34-2.26-4.65-3.57-6.88a51.59,51.59,0,0,0-7.16-9.76,24.29,24.29,0,0,0-11.9-7.28c-1.18-.28-8.34-2-7.12,1.2a3.5,3.5,0,0,0,1,1.24c4,3.4,8.64,5.61,13,8.52,6.46,4.35,14.31,14.46,17.55,18.84l1.54,2.88c-5.85-7.46-16.48-12.85-20.58-11.69-5.08,1.43,4.77,5.24,13.07,8.83a24.61,24.61,0,0,1,9.66,6.91c1.32,2.49,2.79,5.31,4.26,8.18.17.43.33.85.51,1.26a26.49,26.49,0,0,0-3.84-4.83c-4-3.72-15.85-7.46-17.78-3.56s7,3.37,14.26,5.72a20,20,0,0,1,9.71,7.28l.41.61c.66,1.32,1.28,2.6,1.87,3.83,1.36,2.86,2.66,5.55,3.94,8.17a43.27,43.27,0,0,0-7.44-10c-5.8-5.46-14.32-7.77-17.85-5.87s10.7,6.34,17.46,10a26.1,26.1,0,0,1,9.45,9.15c1.82,3.69,3.65,7.3,5.62,11.09A100.3,100.3,0,0,0,98.6,319.15c-6.58-5.94-14.28-6.48-16.77-3.85s3.7,3.73,14.84,8a36,36,0,0,1,15,10.86c.84,1.59,1.7,3.22,2.62,4.91a67,67,0,0,0,3.61,5.91c-1.82-1.18-4.5-2.9-7.48-4.76a75.48,75.48,0,0,1-9.51-6.82c-3.44-3-8.15-6.26-13-5a2.5,2.5,0,0,0-2,3.26,4.88,4.88,0,0,0,1.89,2.42c4.56,3.54,10.69,5.24,16,7.32a118.89,118.89,0,0,0,14.93,4.77c1.26,1.81,2.58,3.59,3.89,5.3l-2.38.07c-2.82.08-15.54-5.68-22-7.54s-12.5,1.66-5.73,5.3,25.18,2.83,25.18,2.83L123,352c1.25,1.6,2.48,3.11,3.63,4.5H101.41v7h5l4,24.88H144L148,363.52h5v-7H136.28a63.74,63.74,0,0,1,.24-9.06,21.26,21.26,0,0,1,3.69-3c7.34-5.07,19.78-5.49,23.09-15.25.8-2.36-.1-5.38-2.92-5.25-2,.1-4.17,1.87-5.43,3.33-4.2,4.85-7.36,9.88-12.82,13.55-.25.17-3.69,2.91-5.4,4.61.19-1.59.43-3.29.74-5.12a50.27,50.27,0,0,1,4.5-6.67c4.47-5.54,11.27-8.79,16.1-14.08,1.48-1.62,3.43-7.44-1.09-6-2,.65-4.38,3.69-5.95,5.09-4.44,4-9,8.26-11.9,13.52.12-.52.25-1,.37-1.57A111.6,111.6,0,0,1,150,316.45c6.42-7.31,13-12.09,13.11-16.08s-8.17,2.7-15.2,11.86a47.92,47.92,0,0,0-7.32,13.91c1.29-5.19,2.66-10.42,4-15.44.92-2.5,3.65-9,8.68-13.51,6.35-5.67,11.49-10.35,12.4-16S164,277.27,158.36,285.62Zm-35.51,64.32q-1.42-1.94-3-4.24a50,50,0,0,1-1.25-7.95,32.9,32.9,0,0,1,.31-6.87,78.63,78.63,0,0,0,5.43,6.06,30.22,30.22,0,0,1-.73,5.95C123.58,343.18,122.94,347.53,122.85,349.94Zm5.44,6.58c-1.29-1.37-2.7-3-4.23-5a21,21,0,0,1,.65-4.7,33.85,33.85,0,0,1,2.62-7c2.37,2.25,4.11,3.75,4.11,3.75l4,3.5c-.31,3.5-.49,6.77-.6,9.43Zm7.2-10.06-1.79-1.57c-1-.9-2.8-4.38-4.76-8.38a47.76,47.76,0,0,0,2.22-5.2c2.12,3.93,4,7,5.11,8.63C136,342.12,135.7,344.32,135.49,346.46Z" style="fill:#92E3A9"></path><path d="M158.36,285.62c-3.86,5.72-9.24,13.17-12.11,19.15,1.09-3.94,2.16-7.66,3.13-11,1.47-2.88,5.41-10.18,10-15,5.77-6.18,8.24-10.14,5.13-10.49-2.15-.24-8.45,8.15-12.4,16.49.86-2.85,1.54-5,1.95-6.3.19-.57.37-1.21.55-1.88a165.38,165.38,0,0,0,11.14-17.86c5.83-10.9,7.71-21.18,3.82-16.75-3.58,4.07-9.81,24.3-14.75,33.83.41-1.64.81-3.46,1.16-5.25.7-1.73,1.62-3.49,2.14-5.09.81-2.45,1.52-4.94,2.09-7.46a51.86,51.86,0,0,0,1.42-12,24.31,24.31,0,0,0-3.72-13.44c-.67-1-4.76-7.12-6-4a3.37,3.37,0,0,0-.09,1.61c.6,5.21,2.49,10,3.66,15.07,1.75,7.59.59,20.34,0,25.76-.22.85-.5,1.92-.83,3.15.81-9.45-3.28-20.64-7.07-22.59-4.69-2.42-.09,7.08,3.53,15.37a24.69,24.69,0,0,1,2.35,11.64c-.74,2.73-1.59,5.79-2.47,8.89-.17.43-.34.85-.5,1.27a26.55,26.55,0,0,0,.5-6.15c-.35-5.42-6.49-16.27-10.57-14.74s2.83,7.26,6.52,13.92A20.07,20.07,0,0,1,149,293.64c0,.24-.08.48-.11.72-.42,1.41-.84,2.78-1.25,4.07-1,3-1.85,5.88-2.7,8.66a43.32,43.32,0,0,0,1.36-12.35c-.51-7.95-5.16-15.45-9-16.47s3.49,11.93,5.95,19.21a26.12,26.12,0,0,1,.66,13.14c-1.19,3.94-2.31,7.82-3.46,11.94a99.4,99.4,0,0,0-.34-16.15c-.75-8.84-6-14.49-9.63-14.26s.16,5.25,5.38,16a35.93,35.93,0,0,1,3.56,18.18c-.47,1.74-1,3.52-1.44,5.38-.56,2.12-1,4.42-1.39,6.78-.53-2.1-1.31-5.18-2.22-8.58a76.25,76.25,0,0,1-2.3-11.48c-.49-4.51-1.68-10.13-6.1-12.48a2.49,2.49,0,0,0-3.7,1,4.91,4.91,0,0,0-.27,3.06,33.73,33.73,0,0,0,3,8.82,10.18,10.18,0,0,0-1.15,5.41c0,.71.06,1.41.11,2.1-.39-.71-.76-1.37-1.11-2a12.93,12.93,0,0,0-2.32-2.86,37.11,37.11,0,0,0,.34-5c0-2.2-2.57-7.78-4.89-3.64-.92,1.65-.75,4.91-.84,7.07-.63.59-.82,1.81-.29,3.74a48.17,48.17,0,0,0,.78,15l-.79-1.4a109.83,109.83,0,0,1-2-17.54C112.46,310,114,302,111.36,299s-4.13,7.55-3,19a48,48,0,0,0,4.14,15.17c-2.6-4.67-5.17-9.43-7.6-14-1-2.46-3.48-9.08-2.87-15.8.77-8.48,1.33-15.41-1.89-20.18s-3.89-1.68-2.31,8.26c1.08,6.83,2.23,15.95,4.22,22.28-1.89-3.63-3.66-7.08-5.24-10.21-.9-3.11-3-11.13-3-17.78,0-8.45-.91-13-3.41-11.17-1.74,1.3-.62,11.73,2.18,20.51-1.31-2.67-2.3-4.72-2.87-5.93-.26-.55-.55-1.13-.88-1.75a165.34,165.34,0,0,0-4-20.65c-3.17-12-8.81-20.74-8.64-14.86.16,5.42,9.42,24.46,12.31,34.8-.82-1.48-1.77-3.08-2.73-4.63-.67-1.74-1.2-3.65-1.91-5.18-1.09-2.34-2.26-4.65-3.57-6.88a51.59,51.59,0,0,0-7.16-9.76,24.29,24.29,0,0,0-11.9-7.28c-1.18-.28-8.34-2-7.12,1.2a3.5,3.5,0,0,0,1,1.24c4,3.4,8.64,5.61,13,8.52,6.46,4.35,14.31,14.46,17.55,18.84l1.54,2.88c-5.85-7.46-16.48-12.85-20.58-11.69-5.08,1.43,4.77,5.24,13.07,8.83a24.61,24.61,0,0,1,9.66,6.91c1.32,2.49,2.79,5.31,4.26,8.18.17.43.33.85.51,1.26a26.49,26.49,0,0,0-3.84-4.83c-4-3.72-15.85-7.46-17.78-3.56s7,3.37,14.26,5.72a20,20,0,0,1,9.71,7.28l.41.61c.66,1.32,1.28,2.6,1.87,3.83,1.36,2.86,2.66,5.55,3.94,8.17a43.27,43.27,0,0,0-7.44-10c-5.8-5.46-14.32-7.77-17.85-5.87s10.7,6.34,17.46,10a26.1,26.1,0,0,1,9.45,9.15c1.82,3.69,3.65,7.3,5.62,11.09A100.3,100.3,0,0,0,98.6,319.15c-6.58-5.94-14.28-6.48-16.77-3.85s3.7,3.73,14.84,8a36,36,0,0,1,15,10.86c.84,1.59,1.7,3.22,2.62,4.91a67,67,0,0,0,3.61,5.91c-1.82-1.18-4.5-2.9-7.48-4.76a75.48,75.48,0,0,1-9.51-6.82c-3.44-3-8.15-6.26-13-5a2.5,2.5,0,0,0-2,3.26,4.88,4.88,0,0,0,1.89,2.42c4.56,3.54,10.69,5.24,16,7.32a118.89,118.89,0,0,0,14.93,4.77c1.26,1.81,2.58,3.59,3.89,5.3l-2.38.07c-2.82.08-15.54-5.68-22-7.54s-12.5,1.66-5.73,5.3,25.18,2.83,25.18,2.83L123,352c1.25,1.6,2.48,3.11,3.63,4.5H101.41v7h5l4,24.88H144L148,363.52h5v-7H136.28a63.74,63.74,0,0,1,.24-9.06,21.26,21.26,0,0,1,3.69-3c7.34-5.07,19.78-5.49,23.09-15.25.8-2.36-.1-5.38-2.92-5.25-2,.1-4.17,1.87-5.43,3.33-4.2,4.85-7.36,9.88-12.82,13.55-.25.17-3.69,2.91-5.4,4.61.19-1.59.43-3.29.74-5.12a50.27,50.27,0,0,1,4.5-6.67c4.47-5.54,11.27-8.79,16.1-14.08,1.48-1.62,3.43-7.44-1.09-6-2,.65-4.38,3.69-5.95,5.09-4.44,4-9,8.26-11.9,13.52.12-.52.25-1,.37-1.57A111.6,111.6,0,0,1,150,316.45c6.42-7.31,13-12.09,13.11-16.08s-8.17,2.7-15.2,11.86a47.92,47.92,0,0,0-7.32,13.91c1.29-5.19,2.66-10.42,4-15.44.92-2.5,3.65-9,8.68-13.51,6.35-5.67,11.49-10.35,12.4-16S164,277.27,158.36,285.62Zm-35.51,64.32q-1.42-1.94-3-4.24a50,50,0,0,1-1.25-7.95,32.9,32.9,0,0,1,.31-6.87,78.63,78.63,0,0,0,5.43,6.06,30.22,30.22,0,0,1-.73,5.95C123.58,343.18,122.94,347.53,122.85,349.94Zm5.44,6.58c-1.29-1.37-2.7-3-4.23-5a21,21,0,0,1,.65-4.7,33.85,33.85,0,0,1,2.62-7c2.37,2.25,4.11,3.75,4.11,3.75l4,3.5c-.31,3.5-.49,6.77-.6,9.43Zm7.2-10.06-1.79-1.57c-1-.9-2.8-4.38-4.76-8.38a47.76,47.76,0,0,0,2.22-5.2c2.12,3.93,4,7,5.11,8.63C136,342.12,135.7,344.32,135.49,346.46Z" style="fill:#fff;opacity:0.5"></path></g><g id="freepik--Characters--inject-13"><ellipse cx="163.99" cy="404.59" rx="41.98" ry="9.09" style="fill:#92E3A9"></ellipse><ellipse cx="163.99" cy="404.59" rx="41.98" ry="9.09" style="fill:#fff;opacity:0.5"></ellipse><ellipse cx="316.31" cy="404.59" rx="41.98" ry="9.09" style="fill:#92E3A9"></ellipse><ellipse cx="316.31" cy="404.59" rx="41.98" ry="9.09" style="fill:#fff;opacity:0.5"></ellipse><path d="M245.85,238.63a14,14,0,0,1,4.24,4.13c1.26,2.29,6.54,3.78,6.54,3.78h1.95l.8,9.17a47.28,47.28,0,0,0-6,.58,19.64,19.64,0,0,1-3.56.45s-6.19-7.79-7.22-9.28-1.14-4.58-.68-5.16S245.85,238.63,245.85,238.63Z" style="fill:#fff;stroke:#263238;stroke-linecap:round;stroke-linejoin:round;stroke-width:0.75px"></path><path d="M237.6,254.22s-3.44,1.15-1.95,2.07a4.05,4.05,0,0,0,4.59-.92C240.81,254.45,239,253.76,237.6,254.22Z" style="fill:#fff;stroke:#263238;stroke-linecap:round;stroke-linejoin:round;stroke-width:0.75px"></path><path d="M233.82,243.68s10.2-3.67,10.66-3.33,1.26,3.44,1.26,3.44,7.1,4.24,7.68,5.85a20.89,20.89,0,0,1,0,7.56c-.35.58-2.29,1.26-3,1.49a4.53,4.53,0,0,1-2.18,0c-.34-.11-5.85-4-5.85-4s-5.61.57-6.87.57-2.53-.11-2.53-.11Z" style="fill:#fff;stroke:#263238;stroke-linecap:round;stroke-linejoin:round;stroke-width:0.75px"></path><path d="M246.54,248s3.78,2.07,4.59,3.21,1.6,6.08,1.6,6.08" style="fill:none;stroke:#263238;stroke-linecap:round;stroke-linejoin:round;stroke-width:0.75px"></path><path d="M244.94,250.1s4.47,2.4,4.92,3.55a36,36,0,0,1,1,4.47" style="fill:none;stroke:#263238;stroke-linecap:round;stroke-linejoin:round;stroke-width:0.75px"></path><path d="M247.23,240.81s-4.93,5.5-6.08,6.08-1.37-.12-2-.58,3.67-6.64,3.56-7.1a3.35,3.35,0,0,1,4.12.11" style="fill:#fff;stroke:#263238;stroke-linecap:round;stroke-linejoin:round;stroke-width:0.75px"></path><path d="M240,253l-.18.62a12.77,12.77,0,0,0-.63,3.39c.23.46,1.61.92,2.07.23s1.37-4.12,1.14-4.58S241.27,250.21,240,253Z" style="fill:#fff;stroke:#263238;stroke-linecap:round;stroke-linejoin:round;stroke-width:0.75px"></path><path d="M244.36,252.5c-.36.45-2,5.39-1.6,6s2.06.81,2.52.12,2.06-5,1.6-6S246,250.55,244.36,252.5Z" style="fill:#fff;stroke:#263238;stroke-linecap:round;stroke-linejoin:round;stroke-width:0.75px"></path><path d="M247.23,253.53l-.17.4c-.5,1.19-1.93,4.78-1.55,5.45s2.63,1,3.09-.11,2.07-5.39,1-6.42A1.35,1.35,0,0,0,247.23,253.53Z" style="fill:#fff;stroke:#263238;stroke-linecap:round;stroke-linejoin:round;stroke-width:0.75px"></path><path d="M168.34,157.14s.6,3.69-.09,5.16-1.72,4.55-1.72,4.55l15.22,13.5s4.64-5.85,5.5-7,2-2.67,2-2.67-7.48-4.73-9-8.17-.77-7.82-4-8.51S169.29,155.08,168.34,157.14Z" style="fill:#fff;stroke:#263238;stroke-linecap:round;stroke-linejoin:round;stroke-width:0.75px"></path><path d="M197.31,134.36s6.36-.09,5.07-6.19-16.16-7.4-18.91-4.56-2.32,4-2.32,4-12.81-.34-16.08,6.62-1.8,16,.35,20.72,5.76,5.24,7.65,4.64,3.26-1.72,3.26-3.44,1.21-5.84,2.67-4.81,3,1.37,5.59-1.12,6.27-5.59,4.9-8.08-3.7-2.58-2.41-3.7,8.6-2,9.28-2.75A5.72,5.72,0,0,0,197.31,134.36Z" style="fill:#263238;stroke:#263238;stroke-linecap:round;stroke-linejoin:round;stroke-width:0.75px"></path><path d="M197,130.7s.9,1.81-7.66,4.06-23,2.7-23.43,8.11" style="fill:none;stroke:#fff;stroke-linecap:round;stroke-linejoin:round;stroke-width:0.75px"></path><path d="M180.35,141.07s-10.36,3.15-12.62,6.76.91,6.75.91,6.75" style="fill:none;stroke:#fff;stroke-linecap:round;stroke-linejoin:round;stroke-width:0.75px"></path><path d="M197.31,134.36s2.41,8.16,2.41,9.8-1.72,3.26-.95,5.07,3.35,5.33,3.35,6.45-3.78,2.23-3.78,2.23-3.18,12-3.87,13.5-3,1.72-5.76,1-10.05-4.56-12-7.56-.52-8.09-.52-8.09-4-1.8-4.81-5.58,2.15-6.28,4.73-5.42a5.44,5.44,0,0,1,3.35,2.84s.26.94,1,.69,1.46-1.81,2.15-1.9,5.59-1.8,5-3.69-6.71-2-6.28-4.13S197.31,134.36,197.31,134.36Z" style="fill:#fff;stroke:#263238;stroke-linecap:round;stroke-linejoin:round;stroke-width:0.75px"></path><line x1="189.66" y1="156.19" x2="187.17" y2="157.91" style="fill:#fff;stroke:#263238;stroke-linecap:round;stroke-linejoin:round;stroke-width:0.75px"></line><path d="M188.71,157.31s.78,2.06,4,2.75" style="fill:#fff;stroke:#263238;stroke-linecap:round;stroke-linejoin:round;stroke-width:0.75px"></path><path d="M188.8,157.91s-1.46,4,.34,4.9,2.58-2.83,2.58-2.83Z"></path><path d="M198.51,149.88c-.1,2.09-.63,3.76-1.18,3.73s-.9-1.74-.79-3.83.63-3.75,1.18-3.73S198.62,147.79,198.51,149.88Z" style="fill:#fff;stroke:#263238;stroke-linecap:round;stroke-linejoin:round;stroke-width:0.75px"></path><line x1="196.54" y1="147.77" x2="179" y2="147.77" style="fill:#fff;stroke:#263238;stroke-linecap:round;stroke-linejoin:round;stroke-width:0.75px"></line><path d="M195.33,145.45a3.11,3.11,0,0,1,1.89-2.07c1.47-.43,1.72.35,1.72.35" style="fill:#fff;stroke:#263238;stroke-linecap:round;stroke-linejoin:round;stroke-width:0.75px"></path><path d="M135.7,291.13l53.3-1.6s3.32,36.9,2.52,37.71-53.64,3-53.64,3-4.09.29-4.67-1.54S135.7,291.13,135.7,291.13Z" style="fill:#fff;stroke:#263238;stroke-linecap:round;stroke-linejoin:round;stroke-width:0.75px"></path><path d="M135.7,291.13s-5,36.56-4.13,37.6,5,1.79,6.31,1.49C139.08,330,135.7,291.13,135.7,291.13Z" style="fill:#fff;stroke:#263238;stroke-linecap:round;stroke-linejoin:round;stroke-width:0.75px"></path><path d="M151.4,391.31c-2.93,1.79-4.35,4.81-3.66,7.22s.91,2.64,2.75,3,10.08-.92,19-2.41,10.21-1.83,11-3.09,2.18-2.52-6.65-4-9.63-3.1-9.63-3.1S156.1,388.44,151.4,391.31Z" style="fill:#92E3A9;stroke:#263238;stroke-linecap:round;stroke-linejoin:round;stroke-width:0.75px"></path><path d="M180.25,393.69c-.6,1.23-2.48,3.44-8.39,4.15-6.25.75-17.56,1.88-23.53,2.39.41.85.91,1,2.16,1.28,1.83.34,10.08-.92,19-2.41s10.21-1.83,11-3.09C181,395.25,181.69,394.49,180.25,393.69Z" style="fill:#263238;stroke:#263238;stroke-linecap:round;stroke-linejoin:round;stroke-width:0.75px"></path><path d="M167.22,394.4s9.17,4.36,14.22,5.39,6.3,1.15,5.73,2.75-.69,2.07-8.37,3.9-16.05-.23-19.72-.92-4.81.35-6.41-.34-1.15-4.13-1.15-4.13Z" style="fill:#92E3A9;stroke:#263238;stroke-linecap:round;stroke-linejoin:round;stroke-width:0.75px"></path><path d="M178.8,406.44c6.45-1.54,7.56-2.11,8.09-3.21-7,3-16.28,1.76-23.36.95-4.56-.53-8.91-1-12-1.25a2.57,2.57,0,0,0,1.17,2.25c1.6.69,2.75-.34,6.41.34S171.12,408.27,178.8,406.44Z" style="fill:#263238;stroke:#263238;stroke-linecap:round;stroke-linejoin:round;stroke-width:0.75px"></path><path d="M156.91,310.16s-1.61,13.06-4.82,18.68-7.56,9.51-8.25,17.65,1.6,41.38,1.83,44.25-1,3.78.23,5.61a31.9,31.9,0,0,0,2.52,3.21l3.79-3.32s2.75-8.83,2.06-25.68-.57-28.19,2.41-39.43,3.55-14.21,2.17-18.57S156.91,310.16,156.91,310.16Z" style="fill:#263238;stroke:#263238;stroke-linecap:round;stroke-linejoin:round;stroke-width:0.75px"></path><path d="M149.69,283.08s3.78,7.13,4.64,9,2.83,23.56,1.29,30.78-7.54,19.49-7,30.26,1,39.32,1,39.66a13,13,0,0,0,0,5.16c.57,3.09,2.29,4,2.29,4a57.4,57.4,0,0,1,9.05-3.32c5.62-1.61,7.22-3.9,7.22-3.9a41.34,41.34,0,0,0-1.72-4.36c-.8-1.6-2.17-4.12-1.94-4.93s1.72-27.16,4.7-35.87,4.69-17.88,7.22-25.91S185,294.11,185,288.61v-6.76l-35.76-.69Z" style="fill:#263238;stroke:#263238;stroke-linecap:round;stroke-linejoin:round;stroke-width:0.75px"></path><path d="M152.64,334.44c-1,3.07-2.11,6.51-2.95,9.24-2,6.5,0,43,0,43a68.7,68.7,0,0,1,.19,8c-.19,3.31,0,4.62.82,5.51" style="fill:none;stroke:#fff;stroke-linecap:round;stroke-linejoin:round;stroke-width:0.75px"></path><path d="M155.19,326.68s-.74,2.21-1.73,5.24" style="fill:none;stroke:#fff;stroke-linecap:round;stroke-linejoin:round;stroke-width:0.75px"></path><path d="M165.42,163.76s4,1.37,10,6.62,12.12,10.23,10.83,12-3.7,8-3.7,8-2.23-3.7-8.85-9S162,171.32,162,171.32,164.73,164.88,165.42,163.76Z" style="fill:#fff;stroke:#263238;stroke-linecap:round;stroke-linejoin:round;stroke-width:0.75px"></path><path d="M160.09,172.18s-12.81,9.11-15,17.88-3.1,13.07-2.92,29.83,1.2,27.34,1.2,28.11S140,279.9,140,280.24s6,5.85,22.78,6.19a202.13,202.13,0,0,0,34-2.66l-7.31-60.35s-2.84-25.71-5.76-30.52S160.09,172.18,160.09,172.18Z" style="fill:#92E3A9;stroke:#263238;stroke-linecap:round;stroke-linejoin:round;stroke-width:0.75px"></path><path d="M167.48,255.83s10.66,2.15,18-.52" style="fill:none;stroke:#263238;stroke-linecap:round;stroke-linejoin:round;stroke-width:0.75px"></path><path d="M167.48,259s10.66,2.15,18-.51" style="fill:none;stroke:#263238;stroke-linecap:round;stroke-linejoin:round;stroke-width:0.75px"></path><polygon points="231.98 241.96 234.62 243.22 233.01 255.14 230.38 254.68 231.98 241.96" style="fill:#fff;stroke:#263238;stroke-linecap:round;stroke-linejoin:round;stroke-width:0.75px"></polygon><path d="M171.46,187.86a8.72,8.72,0,0,0-3.89,2.52c-1.72,2-11,13.52-10.32,18.57S170,232.44,174,238.18A41.76,41.76,0,0,0,194.27,254c10.09,3.67,36.34,1.84,36.34,1.84L232,241.61s-14.32-4.58-24.18-7.56a122.12,122.12,0,0,1-16.05-6s-2.29-5.62-3.9-6.53-1.83-1.49-1.83-1.49-3.09-16.85-4.7-22.36-3.78-6.87-3.78-6.87" style="fill:#92E3A9;stroke:#263238;stroke-linecap:round;stroke-linejoin:round;stroke-width:0.75px"></path><path d="M305.46,388.65a100.08,100.08,0,0,1-12.72,6.19c-5.85,2.18-7.23,3-6.08,4.24s11.12,2.18,16.73,1,7.8-1.94,10.32-1.83,6,.8,7.22-.92,1.72-2.06.8-4.93S305.46,388.65,305.46,388.65Z" style="fill:#92E3A9;stroke:#263238;stroke-linecap:round;stroke-linejoin:round;stroke-width:0.75px"></path><path d="M303.39,400.11c5.62-1.14,7.8-1.94,10.32-1.83s6,.8,7.22-.92c.9-1.23,1.39-1.76,1.26-3-4.08-.34-11.95.95-21.33,3a38.89,38.89,0,0,1-14.51.74.93.93,0,0,0,.31,1C287.81,400.34,297.78,401.26,303.39,400.11Z" style="fill:#263238;stroke:#263238;stroke-linecap:round;stroke-linejoin:round;stroke-width:0.75px"></path><path d="M327.12,396.22a81.52,81.52,0,0,1-7.33,7c-3.79,3.09-10.32,7.34-9.63,9.17s5.38,3.55,15.24,1a57.44,57.44,0,0,0,17.65-8.25,4.42,4.42,0,0,0,2.75-1.72c.81-1.38-.11-3.55-.11-3.55Z" style="fill:#92E3A9;stroke:#263238;stroke-linecap:round;stroke-linejoin:round;stroke-width:0.75px"></path><path d="M325.4,413.41a57.44,57.44,0,0,0,17.65-8.25,4.42,4.42,0,0,0,2.75-1.72,4.32,4.32,0,0,0,0-3.3c-14.26,10.79-27.6,13-34.66,13.32C313,414.74,317.58,415.41,325.4,413.41Z" style="fill:#263238;stroke:#263238;stroke-linecap:round;stroke-linejoin:round;stroke-width:0.75px"></path><path d="M310,262.68s-6.07.81-10.43-.8-8.48-2.86-8.48-2.86-2.41,31.29.23,43.9,9.63,28,9.74,31.52a75,75,0,0,0,1.49,12.6c.8,3.21,4.7,28,4.93,30.72a18.63,18.63,0,0,1,0,4.13s-2.75.92-2.75,1.72v5.84a38.24,38.24,0,0,0,7.11,2.87c4.24,1.26,10.2,2.29,10.2,2.29a62.74,62.74,0,0,0,1.14-7c0-1.6-1-5.84-1-8.14s.58-29.8.58-29.8,5.61,23.5,5.61,31.29-.11,10.32-.11,10.32-2.52-.8-2.52.92-.12,5.84-.12,5.84,8.94,2.29,13.18,3.55a16.84,16.84,0,0,0,7.8.46s2.29-8.71,2.06-11.57-3.09-5.28-3.09-6.88,1.49-17.42-.69-31.18-7.91-20.06-8.14-26.82,1-31.06,1.15-35,4.12-12.15,4.7-15.82.11-14.55.11-14.55S317,263.94,310,262.68Z" style="fill:#263238;stroke:#263238;stroke-linecap:round;stroke-linejoin:round;stroke-width:0.75px"></path><line x1="299.04" y1="278.39" x2="305.23" y2="282.4" style="fill:none;stroke:#fff;stroke-linecap:round;stroke-linejoin:round;stroke-width:0.75px"></line><path d="M321.38,346.16c.86,2.23,1.39,3.52,1.39,3.52" style="fill:none;stroke:#fff;stroke-linecap:round;stroke-linejoin:round;stroke-width:0.75px"></path><path d="M303.17,281.37s4.12,24.18,9.05,39.31c2.53,7.76,5.24,15.2,7.28,20.59" style="fill:none;stroke:#fff;stroke-linecap:round;stroke-linejoin:round;stroke-width:0.75px"></path><path d="M256.63,244.94c.11.34.68,12.84.68,12.84l32.9-3-.68-16.16Z" style="fill:#263238;stroke:#263238;stroke-linecap:round;stroke-linejoin:round;stroke-width:0.75px"></path><path d="M321.16,179.47s-7.45,2.63-8.94,4.47S301.9,216.83,299,226s-3.78,36.91-3.78,36.91a31.47,31.47,0,0,0,4.93,1.38,25.27,25.27,0,0,0,5,.34s9.63-32.44,14.33-43.55,12.6-27.05,15.59-33.24,5.61-7.34,5.27-10.32-1.72-4.13-3.44-4.36S321.16,179.47,321.16,179.47Z" style="fill:#fff;stroke:#263238;stroke-linecap:round;stroke-linejoin:round;stroke-width:0.75px"></path><path d="M322.09,178.56s-7.45,2.63-8.94,4.47S302.84,215.92,300,225.09,296.19,262,296.19,262a31.47,31.47,0,0,0,4.93,1.38,26.17,26.17,0,0,0,5,.34s9.63-32.44,14.33-43.56,12.61-27,15.59-33.24,5.61-7.33,5.27-10.31-1.72-4.13-3.44-4.36S322.09,178.56,322.09,178.56Z" style="fill:#92E3A9;stroke:#263238;stroke-linecap:round;stroke-linejoin:round;stroke-width:0.75px"></path><path d="M332.16,182.33a195,195,0,0,0-12.26,24.88c-4.7,12.15-8.48,23-13.3,39.2a82.23,82.23,0,0,0-2.86,30.83s2.29,3.9,15.82,4.36,30.49-3.9,30.49-3.9-2.3-13.76-2.53-21.89,6.31-36.68,9.06-44.13,8.71-14.9,3-22.12-19.37-15.36-19.37-15.36S333.65,179.81,332.16,182.33Z" style="fill:#263238;stroke:#263238;stroke-linecap:round;stroke-linejoin:round;stroke-width:0.75px"></path><path d="M316.69,182.22s-3.55,4.47-6.76,14-9.17,34.85-11.92,45.62-4.13,34.73-4.13,34.73-1.49-.11-4.58-.11a13.85,13.85,0,0,1-5.85-1.49s2.18-23.5,4.13-34.5,7.68-30.61,8.71-38.29,1.37-9.62,2.75-10.66,12.15-7.56,14.33-9.05S316.69,182.22,316.69,182.22Z" style="fill:#263238;stroke:#263238;stroke-linecap:round;stroke-linejoin:round;stroke-width:0.75px"></path><path d="M343.74,176.72s-6.53,12.95-8.25,15.36a31.17,31.17,0,0,0-2.64,4.35l-5.73,2.18,2.29,3.67S317.84,223,314.86,229.9s-6,14.33-6,14.33" style="fill:none;stroke:#fff;stroke-linecap:round;stroke-linejoin:round;stroke-width:0.75px"></path><path d="M296.65,235.07c-.21,2.29-.25,3.2-.25,3.2" style="fill:none;stroke:#fff;stroke-linecap:round;stroke-linejoin:round;stroke-width:0.75px"></path><path d="M310.85,186.23l-6.42,9.86,1.49,2.29-3.56,4.36s-3.78,15.7-4.81,24.18c-.2,1.65-.37,3.09-.5,4.34" style="fill:none;stroke:#fff;stroke-linecap:round;stroke-linejoin:round;stroke-width:0.75px"></path><polygon points="312.11 181.99 310.85 188.06 317.38 183.71 312.11 181.99" style="fill:#fff;stroke:#263238;stroke-linecap:round;stroke-linejoin:round;stroke-width:0.75px"></polygon><path d="M317.61,177.18c-.12.34-5.5,4.81-5.5,4.81l6.07,2.52,1.26-4.93Z" style="fill:#fff;stroke:#263238;stroke-linecap:round;stroke-linejoin:round;stroke-width:0.75px"></path><path d="M315.43,131.44a15.11,15.11,0,0,0-5.85,6.76c-2.06,4.7-3.66,6.65-3.2,8.14a15.83,15.83,0,0,1,.68,3.1c0,.34-4.81,4.93-4.93,6.3s3.1,3.9,3.1,3.9.34,7.91.34,8.6.23,4.24,3.56,5.15a14.3,14.3,0,0,0,6.87-.11l2.18,11.23s15.25-9.4,16.85-10.2,3.55-1.83,3.67-3.09-.92-8.26-.92-8.26,8.14-7.45,8-16.16S341,132.59,332.51,130,315.43,131.44,315.43,131.44Z" style="fill:#fff;stroke:#263238;stroke-linecap:round;stroke-linejoin:round;stroke-width:0.75px"></path><path d="M345.8,146.8c-.11-8.71-4.81-14.21-13.29-16.85s-17.08,1.49-17.08,1.49a12.1,12.1,0,0,0-1.88,1.39c2.8-.5,7.41-.85,10.71,1.25,5,3.21,1.83,6.42.11,8.14s-2.06,2.4-.8,4,3.67,1.6,3.09,3.09-2.29,3.56-.91,4.13,2.63-.69,3.21-2.41,3.43-1.72,4.58,1.84a6.79,6.79,0,0,1-2.41,7.45,4.72,4.72,0,0,1-3.21.91,29,29,0,0,0,6.19,2.3,11.58,11.58,0,0,0,3.71-.29c0-.18,0-.29,0-.29S345.92,155.51,345.8,146.8Z" style="fill:#263238;stroke:#263238;stroke-linecap:round;stroke-linejoin:round;stroke-width:0.75px"></path><path d="M312.45,151.27c0,.89-.28,1.61-.63,1.61s-.63-.72-.63-1.61.28-1.6.63-1.6S312.45,150.39,312.45,151.27Z"></path><path d="M309.47,146.46s.46-1.61,3-1.49,2.64,1.95,2.64,1.95" style="fill:#fff;stroke:#263238;stroke-linecap:round;stroke-linejoin:round;stroke-width:0.75px"></path><path d="M305.23,159.64a4.63,4.63,0,0,0,4.24-.57c1.83-1.49.34-2.76.34-2.76" style="fill:#fff;stroke:#263238;stroke-linecap:round;stroke-linejoin:round;stroke-width:0.75px"></path><path d="M305.69,161.47s6.07-3,8.82-3.09S320.13,163,319,167s-2.4,6-6.3,7.57-7.57,1.26-8.25-1.38,2.4-6.41,3.89-7.1,2.64-.8,2.41.46-.92,2.17,1.95,1.6,4.47-1.37,4.58-4.47-1-4.24-4-3.78-7.45,2.86-7.45,2.86Z" style="fill:#263238;stroke:#263238;stroke-linecap:round;stroke-linejoin:round;stroke-width:0.75px"></path><path d="M308.09,163.88s4.82-.23,6.54-2.18" style="fill:#fff;stroke:#263238;stroke-linecap:round;stroke-linejoin:round;stroke-width:0.75px"></path><path d="M327.47,161.13a6.33,6.33,0,0,1-2.3,4.93" style="fill:#fff;stroke:#263238;stroke-linecap:round;stroke-linejoin:round;stroke-width:0.75px"></path><path d="M318.18,184.51l3.33,7.68s12.6-9.4,15.7-13.07,5.5-5.5,3.78-8-4.24-.46-4.7-.23S318.18,184.51,318.18,184.51Z" style="fill:#fff;stroke:#263238;stroke-linecap:round;stroke-linejoin:round;stroke-width:0.75px"></path><path d="M293,252.25a120.62,120.62,0,0,1-3.43-14.15c-.69-4.39-1-8.86-1-8.86A49.52,49.52,0,0,1,272.56,225c-7.56-3.66-9.17-5-9.17-5s10.2,33.24,12.27,40.23,2.52,8.48,2.52,8.48a42.9,42.9,0,0,0,10.31,3.56,54.82,54.82,0,0,0,8.6.91Z" style="fill:#fff;stroke:#263238;stroke-linecap:round;stroke-linejoin:round;stroke-width:0.75px"></path><path d="M304.43,252.25a27.9,27.9,0,0,1-7-2.29,17,17,0,0,0-5.38-2h-.46l1.37,4.24a24.62,24.62,0,0,1-5.15.58c-2.75,0-8.49-.92-8.71-.58a7.83,7.83,0,0,0-.23,2.52c0,.81,4.12,5.74,6.53,7.46s4.58,2.86,6.76,2.86,13.87-1.6,13.87-1.6Z" style="fill:#fff;stroke:#263238;stroke-linecap:round;stroke-linejoin:round;stroke-width:0.75px"></path><path d="M337.78,207.55s.57,12.84.92,22.12.92,10.09.92,10.09-25.68,9.63-29.58,10.43-6.87,1.72-6.87,1.72l1.72,12.49a71.88,71.88,0,0,0,25-2.29c12.5-3.67,31.75-7.34,32.1-9.05s0-6.88,0-8-.35-25.79-.35-36.79.8-13.53-.57-15.82-8.37-3.44-12.38-1.15" style="fill:#263238;stroke:#263238;stroke-linecap:round;stroke-linejoin:round;stroke-width:0.75px"></path><polyline points="318.39 247.13 339.62 239.76 337.74 211.47" style="fill:none;stroke:#fff;stroke-linecap:round;stroke-linejoin:round;stroke-width:0.75px"></polyline><line x1="312.43" y1="249.2" x2="315.5" y2="248.14" style="fill:none;stroke:#fff;stroke-linecap:round;stroke-linejoin:round;stroke-width:0.75px"></line><path d="M345.1,197.21s8-10,15.95-4.79" style="fill:none;stroke:#fff;stroke-linecap:round;stroke-linejoin:round;stroke-width:0.75px"></path><path d="M279.32,253.4s5.28,3.55,8.83,4.13" style="fill:none;stroke:#263238;stroke-linecap:round;stroke-linejoin:round;stroke-width:0.75px"></path><path d="M280.24,256.84a17.75,17.75,0,0,0,5.27,3.21l2.41.68" style="fill:none;stroke:#263238;stroke-linecap:round;stroke-linejoin:round;stroke-width:0.75px"></path><path d="M286,262.57a15.83,15.83,0,0,0,4.24.92" style="fill:none;stroke:#263238;stroke-linecap:round;stroke-linejoin:round;stroke-width:0.75px"></path><path d="M188.66,219.65s-1.58-16.15-3.44-27.53c-1-6.29-4.81-11.65-8.79-16.45-3.29-4-8.26-7.66-11-11.91-.95-1.46-5.93,9.1-5.94,9.11-1,2.25,10.85,9.38,12.45,11,2.1,2.1,4,4.58,5.91,6.84.87,1,3.16,4.81,4.47,5.13l2.12.53-1.59,4.77Z" style="fill:#92E3A9;stroke:#263238;stroke-linecap:round;stroke-linejoin:round;stroke-width:0.75px"></path></g></svg>